<svg width="726" height="169" viewBox="0 0 726 169" fill="none" xmlns="http://www.w3.org/2000/svg">
<path fill-rule="evenodd" clip-rule="evenodd" d="M81.5196 64.1615H75.0127V71.9165H81.5196V64.1615ZM560.841 71.9896H554.333V64.1615H560.841V71.9896ZM31.4381 149.1H37.4332L68.3595 81.1346H61.1946L34.5819 141.272L7.67674 81.1346H0L31.4381 149.1ZM81.5196 149.1H75.0127V81.1346H81.5196V149.1ZM196.451 71.9896H202.958V64.1615H196.451V71.9896ZM202.958 149.1H196.451V81.1346H202.958V149.1ZM382.082 149.1H388.589V64.1615H382.082V149.1ZM560.841 149.1H554.333V81.1346H560.841V149.1ZM363.292 149.1V87.0606H376.818V81.0615H363.292V64.1615H356.785V81.1346V87.1338V149.174H363.292V149.1ZM534.228 87.0606V149.1V149.174H527.721V87.1338V81.1346V64.1615H534.228V81.1346H547.827V87.0606H534.228ZM342.748 107.18V106.229C342.748 92.4013 334.267 86.4753 320.741 86.4753C313.65 86.4753 306.923 88.2312 299.831 91.7429L297.492 86.4753C304.657 82.8173 313.138 80.4762 321.692 80.4762C330.538 80.4762 337.63 82.671 342.382 87.4264C347.573 92.6208 349.036 99.3515 349.036 106.229V149.174H342.821V138.419C341.505 141.126 333.17 150.637 317.671 150.637C304.584 150.637 292.52 142.882 292.52 129.42V129.201C292.52 107.253 315.843 107.253 322.715 107.253H342.748V107.18ZM342.894 122.031C342.894 137.98 330.173 144.711 318.182 144.711C307.143 144.711 299.027 138.2 299.1 128.981C299.1 117.129 307.289 112.959 323.52 112.959H342.894V122.031ZM447.152 107.18V106.229C447.152 92.4013 438.671 86.4753 425.145 86.4753C418.053 86.4753 411.327 88.2312 404.235 91.7429L401.896 86.4753C409.06 82.8173 417.541 80.4762 426.096 80.4762C434.942 80.4762 442.034 82.671 446.786 87.4264C451.977 92.6208 453.439 99.3515 453.439 106.229V149.174H447.225V138.419C445.909 141.126 437.574 150.637 422.074 150.637C408.987 150.637 396.924 142.882 396.924 129.42V129.201C396.924 107.253 420.247 107.253 427.192 107.253H447.152V107.18ZM447.298 122.031C447.298 137.98 434.576 144.711 422.586 144.711C411.546 144.711 403.431 138.2 403.504 128.981C403.504 117.129 411.692 112.959 427.923 112.959H447.298V122.031ZM262.691 149.1H269.124V109.301C269.124 89.6212 259.035 79.8909 242.512 79.8909C225.257 79.8909 218.385 92.9866 217.8 94.5961V81.0615H211.293V149.027H217.8V115.959C217.8 94.9619 228.547 85.8169 241.634 85.8169C262.471 85.8169 262.691 104.692 262.691 113.032V149.1ZM519.752 149.1H513.318V113.032C513.318 104.692 513.098 85.8169 492.262 85.8169C479.175 85.8169 468.427 94.9619 468.427 115.959V149.027H461.92V81.0615H468.427V94.5961C469.012 92.9866 475.885 79.8909 493.139 79.8909C509.662 79.8909 519.752 89.6212 519.752 109.301V149.1ZM155.874 168.707C165.525 168.707 174.079 165.561 179.709 159.709C184.973 154.295 187.97 146.906 187.97 134.542V81.1346H181.683V94.9619C178.173 87.3533 167.426 79.9641 154.266 79.9641C138.401 79.9641 122.682 92.5476 122.682 112.008V112.301C122.682 131.615 138.401 144.052 154.266 144.052C167.28 144.052 177.954 136.371 181.683 128.396V134.615C181.683 153.124 171.959 162.562 155.947 162.562C144.981 162.562 137.085 158.611 129.335 153.051L125.606 158.245C130.066 162.123 141.252 168.707 155.874 168.707ZM129.554 112.008C129.554 127.006 141.252 137.907 154.997 137.907C168.669 137.907 181.61 127.518 181.683 112.155V111.862C181.683 96.2788 168.669 86.1827 154.997 86.1827C141.179 86.1827 129.554 95.9862 129.554 111.716V112.008ZM627.372 133.371C624.009 137.102 616.405 143.833 604.854 143.833C589.5 143.833 577.364 130.957 577.364 114.715V114.423C577.364 98.3273 589.062 85.5974 604.269 85.5974C611.434 85.5974 619.33 88.0117 627.226 95.913L631.247 91.4502C626.934 86.329 617.721 79.5251 604.342 79.5251C584.236 79.5251 570.272 95.8398 570.272 114.642V114.935C570.272 133.737 584.236 149.832 604.342 149.832C618.379 149.832 628.176 141.931 631.466 137.102L627.372 133.371ZM96.8 149.1H90.2931V81.1346H96.8V99.9368C102.21 87.8654 113.323 79.9641 126.703 80.4762V87.2801H126.045C110.472 87.2801 96.8 99.0589 96.8 121.08V149.1Z" fill="#5B056A"/>
<path d="M725.342 0.146332H674.968C659.395 0.146332 655.593 2.70694 649.379 9.51083L604.342 58.8939C640.313 57.2113 651.353 93.4255 687.909 83.4758L725.342 0.146332Z" fill="#EB143A"/>
<path fill-rule="evenodd" clip-rule="evenodd" d="M659.395 19.4606C659.395 19.4606 661.662 15.2905 663.416 13.9736C663.416 13.9736 665.317 12.803 665.39 10.9009C665.39 10.9009 665.537 9.58399 664.513 8.77923C664.513 8.77923 661.808 6.58442 659.541 10.3156C659.541 10.3156 649.086 30.0688 645.504 50.0416C645.504 50.0416 645.211 50.7 645.138 48.871C645.138 48.871 643.603 32.1173 643.53 31.532C643.521 31.4601 643.514 31.3739 643.507 31.2777C643.453 30.5913 643.359 29.4014 642.141 29.3372C642.141 29.3372 640.459 29.0446 639.509 31.532L634.903 42.945C634.903 42.945 634.172 44.4082 635.341 44.9204C635.341 44.9204 636.73 45.7251 637.608 43.7498L639.728 39.1407C640.167 38.1896 640.459 38.3359 640.459 38.3359C640.679 38.4091 640.825 39.287 640.825 39.287C640.825 39.287 642.726 61.7472 642.726 61.8935C642.726 62.0398 642.945 63.8688 644.407 63.8688C645.504 63.8688 645.869 62.6251 646.089 61.6009C646.11 61.5007 646.149 61.3082 646.205 61.0317C646.721 58.4801 648.684 48.7721 651.718 38.4091C653.985 30.8736 656.836 23.3381 659.395 19.4606ZM656.324 38.9944C654.204 39.5065 653.912 41.9208 653.912 41.9208L652.596 51.7243C652.376 53.6996 654.935 52.2364 654.935 52.2364C655.959 51.6511 656.178 50.3342 656.178 50.3342L656.544 47.8468L657.787 41.2623C658.079 38.5554 656.324 38.9944 656.324 38.9944ZM659.761 46.0909C659.834 44.9935 660.565 39.8723 660.565 39.8723C660.841 36.9057 662.352 36.6716 662.462 36.6545C662.468 36.6535 662.47 36.6533 662.466 36.6533C662.685 36.5801 664.074 36.4338 664.074 36.4338C664.074 36.4338 664.659 36.3606 665.683 35.9217C667.072 35.3364 667.511 36.4338 667.511 36.4338C668.242 37.897 665.902 38.9212 665.902 38.9212C663.782 40.0918 663.636 42.7987 663.636 42.7987L663.27 46.4567C662.978 49.0905 661.15 49.6026 661.15 49.6026C658.81 50.4074 659.761 46.0909 659.761 46.0909ZM658.81 34.0926C660.199 32.9221 659.834 32.0442 659.834 32.0442C659.322 30.5078 657.348 32.1173 657.348 32.1173C655.74 33.2879 656.324 34.3853 656.324 34.3853C656.982 35.629 658.81 34.0926 658.81 34.0926ZM684.619 38.7017C684.253 40.8234 682.425 41.1892 682.425 41.1892C680.744 41.6281 681.109 39.9455 681.109 40.0186L681.329 38.4823L682.718 30.8004C683.083 29.0446 684.838 28.6788 684.838 28.6788C686.3 28.313 685.862 30.3615 685.789 30.6541C685.715 30.8736 684.619 38.7017 684.619 38.7017ZM686.812 24.8745C686.812 24.8745 688.347 23.6307 687.616 22.6797C687.616 22.6797 686.958 21.7286 685.131 22.9723C685.131 22.9723 683.522 24.2892 684.472 25.2403C684.482 25.2403 684.506 25.2548 684.543 25.2774C684.796 25.4308 685.665 25.9584 686.812 24.8745ZM703.116 34.0195C704.798 33.2879 705.748 33.7268 706.114 34.3853C706.479 35.0437 706.333 35.7022 705.894 35.7753C705.382 36.5801 703.555 37.1654 702.166 37.6043C701.142 37.897 700.338 38.1896 700.338 38.1896C697.925 38.9212 695.001 40.0918 695.001 40.0918C688.274 42.945 682.279 46.0909 677.088 49.1636C677.069 49.3793 677.049 49.5792 677.031 49.7647C676.981 50.2716 676.942 50.6713 676.942 50.9926C676.942 50.9926 675.992 62.113 675.845 63.7225C675.845 63.7225 675.772 65.6978 676.065 66.9416C676.088 67.0418 676.115 67.1506 676.144 67.2666C676.471 68.5886 677.026 70.8344 675.48 71.8433C674.091 72.7212 672.921 71.697 672.628 71.3312C672.622 71.3221 672.616 71.3124 672.608 71.3019C672.441 71.0588 671.986 70.3961 672.336 67.3805C672.336 67.3805 673.14 59.4061 673.36 56.8455L673.798 51.139C660.199 59.5524 652.815 67.161 652.815 67.161C652.084 67.8195 650.256 69.3559 648.94 67.6732C647.697 66.0636 650.987 63.6494 650.987 63.6494C658.152 57.5039 666.487 52.09 674.018 47.7736L674.164 46.0178C674.164 46.0178 674.237 45.5056 673.652 45.8714C673.652 45.8714 671.093 47.4078 669.265 46.5299C669.265 46.5299 667.73 45.8714 667.803 43.6766C667.803 43.6766 667.803 36.7264 670.728 33.8732C670.728 33.8732 672.409 32.1173 674.018 32.1905C675.041 32.1905 674.895 33.6537 673.579 34.7511C672.411 35.79 672.107 37.0019 671.746 38.4378C671.701 38.6197 671.654 38.8052 671.605 38.9944C671.605 38.9944 670.581 43.7498 672.336 43.5303C672.336 43.5303 674.164 43.6766 674.676 40.6771C674.676 40.6771 675.845 34.1658 675.992 33.361C676.065 32.5563 676.284 30.7273 677.892 30.8004C677.892 30.8004 679.501 30.8004 679.355 32.1173C679.355 32.1173 678.185 40.2381 677.454 46.0178C687.689 40.3113 695.659 36.9459 695.659 36.9459C695.951 36.7996 695.805 36.7264 695.805 36.7264C694.562 36.2875 695.147 33.5805 695.147 33.5805L695.732 28.0935C695.805 26.7035 694.123 27.5082 694.123 27.5082C692.953 28.1667 692.149 29.703 692.149 29.703C691.491 30.6541 691.053 35.4827 691.053 35.4827C690.906 37.897 689.444 38.3359 689.444 38.3359C687.763 38.9212 687.543 37.9701 687.543 37.9701C687.397 37.5312 687.763 35.1901 687.763 35.1901L688.494 29.1909C688.64 26.7035 690.468 26.1913 690.468 26.1913C690.833 26.045 691.418 25.9719 692.003 26.1913C692.588 26.4108 693.027 26.3377 693.392 26.2645C694.05 26.1182 694.854 25.3866 694.854 25.3866C696.536 23.9234 697.56 24.0697 697.56 24.0697C699.534 24.0697 699.241 26.5571 699.241 26.5571L698.583 33.361C698.384 35.9527 700.115 35.2849 700.489 35.1407C700.526 35.1261 700.55 35.1169 700.557 35.1169C700.63 35.1169 701.361 34.8242 703.116 34.0195Z" fill="white"/>
</svg>
